M48
;Layer_Color=9474304
;FILE_FORMAT=2:5
INCH,LZ
;TYPE=PLATED
T1F00S00C0.01600
T2F00S00C0.02200
T3F00S00C0.02756
T4F00S00C0.03150
T5F00S00C0.03543
%
T01
X0017Y00458
T02
X00466Y0015
Y0025
Y0035
Y0045
X00766
Y0035
Y0025
Y0015
T03
X0051257Y0068201
X0070942
X00611Y0080799
T04
X0022179Y0026315
Y0034189
Y0042063
Y0049937
Y0057811
X0032021
Y0049937
Y0042063
Y0034189
Y0026315
Y0065685
X0022179
T05
X00081Y00085
Y00185
Y00285
Y00385
Y0054
X00971Y0056
X01071
Y0046
X00971
Y0036
Y0026
Y0016
X01071
Y0026
Y0036
Y0066
Y0076
X00971
Y0066
X00081Y0064
Y0074
Y0084
M30
