G04 Layer_Physical_Order=2*
G04 Layer_Color=16711680*
%FSLAX25Y25*%
%MOIN*%
G70*
G01*
G75*
%ADD10C,0.01000*%
%ADD11C,0.01200*%
%ADD12C,0.01400*%
%ADD13C,0.06000*%
%ADD14R,0.06000X0.06000*%
%ADD15C,0.06500*%
%ADD16C,0.05905*%
%ADD17R,0.05905X0.05905*%
%ADD18C,0.05512*%
%ADD19C,0.03200*%
D10*
X27200Y21900D02*
Y37042D01*
X22179Y42063D02*
X27200Y37042D01*
D11*
X76600Y25000D02*
X77600D01*
D12*
X82500Y61000D02*
X102100D01*
X68100Y46600D02*
X82500Y61000D01*
X68100Y23500D02*
Y46600D01*
X13800Y8500D02*
X27200Y21900D01*
X8100Y8500D02*
X13800D01*
X17000Y31494D02*
X22179Y26315D01*
X17000Y31494D02*
Y45800D01*
X13800Y47600D02*
X17347Y51147D01*
X13800Y24200D02*
Y47600D01*
X8100Y18500D02*
X13800Y24200D01*
X8100Y44728D02*
X14300Y50928D01*
X8100Y38500D02*
Y44728D01*
X14300Y50928D02*
Y67100D01*
X17347Y51147D02*
Y60853D01*
X32021Y65685D02*
Y66779D01*
X27600Y71200D02*
X32021Y66779D01*
X18400Y71200D02*
X27600D01*
X14300Y67100D02*
X18400Y71200D01*
X8100Y74000D02*
X32100D01*
X39000Y67100D01*
Y32200D02*
Y67100D01*
X33115Y26315D02*
X39000Y32200D01*
X32021Y26315D02*
X33115D01*
X17347Y60853D02*
X22179Y65685D01*
X63600Y60858D02*
X70942Y68201D01*
X63600Y17500D02*
Y60858D01*
Y17500D02*
X71100Y10000D01*
X91100D01*
X97100Y16000D01*
X93600Y41000D02*
X102100D01*
X77600Y25000D02*
X93600Y41000D01*
X102100Y61000D02*
X107100Y56000D01*
X68100Y23500D02*
X76600Y15000D01*
X102100Y41000D02*
X107100Y46000D01*
D13*
Y56000D02*
D03*
Y76000D02*
D03*
Y66000D02*
D03*
X97100D02*
D03*
Y76000D02*
D03*
Y56000D02*
D03*
Y16000D02*
D03*
Y26000D02*
D03*
Y46000D02*
D03*
Y36000D02*
D03*
X107100D02*
D03*
Y46000D02*
D03*
Y26000D02*
D03*
X46600Y35000D02*
D03*
Y15000D02*
D03*
Y25000D02*
D03*
X76600D02*
D03*
Y15000D02*
D03*
Y35000D02*
D03*
Y45000D02*
D03*
D14*
X107100Y16000D02*
D03*
X46600Y45000D02*
D03*
D15*
X51257Y68201D02*
D03*
X70942D02*
D03*
X61100Y80799D02*
D03*
D16*
X8100Y84000D02*
D03*
Y74000D02*
D03*
Y64000D02*
D03*
Y38500D02*
D03*
Y28500D02*
D03*
Y18500D02*
D03*
D17*
Y54000D02*
D03*
Y8500D02*
D03*
D18*
X22179Y34189D02*
D03*
Y26315D02*
D03*
Y42063D02*
D03*
Y49937D02*
D03*
Y57811D02*
D03*
Y65685D02*
D03*
X32021D02*
D03*
Y57811D02*
D03*
Y49937D02*
D03*
Y42063D02*
D03*
Y26315D02*
D03*
Y34189D02*
D03*
D19*
X17000Y45800D02*
D03*
M02*
